<svg xmlns="http://www.w3.org/2000/svg" xmlns:xlink="http://www.w3.org/1999/xlink" width="250" zoomAndPan="magnify" viewBox="0 0 187.5 359.999987" height="480" preserveAspectRatio="xMidYMid meet" version="1.2"><defs><clipPath id="838f2bbf43"><path d="M 24 15 L 168 15 L 168 282 L 24 282 Z M 24 15 "/></clipPath><clipPath id="8c68822b43"><path d="M -38.992188 151.453125 L 119.152344 -6.695312 L 269.367188 143.519531 L 111.21875 301.667969 Z M -38.992188 151.453125 "/></clipPath><clipPath id="e9488a27b5"><path d="M -38.992188 151.453125 L 119.152344 -6.695312 L 269.367188 143.519531 L 111.21875 301.667969 Z M -38.992188 151.453125 "/></clipPath><clipPath id="703b297414"><path d="M 1.488281 211.550781 L 186.996094 211.550781 L 186.996094 359.519531 L 1.488281 359.519531 Z M 1.488281 211.550781 "/></clipPath></defs><g id="8c269ee663"><g clip-rule="nonzero" clip-path="url(#838f2bbf43)"><g clip-rule="nonzero" clip-path="url(#8c68822b43)"><g clip-rule="nonzero" clip-path="url(#e9488a27b5)"><path style=" stroke:none;fill-rule:evenodd;fill:#00cd70;fill-opacity:1;" d="M 110.542969 55.332031 C 35.648438 129.554688 30.433594 204.390625 99.070312 279.878906 C 99.929688 280.828125 98.65625 282.203125 97.632812 281.429688 C 70.761719 261.214844 49.949219 239.113281 37.269531 214.484375 C -4.566406 133.199219 62.589844 49.890625 135.453125 15.992188 C 139.085938 14.304688 143.054688 17.199219 142.613281 21.179688 C 134.269531 96.109375 230.804688 181.3125 90.078125 243.277344 C 56.714844 178.257812 58.683594 115.324219 110.542969 55.332031 "/></g></g></g><g clip-rule="nonzero" clip-path="url(#703b297414)"><path style=" stroke:none;fill-rule:nonzero;fill:#00cd70;fill-opacity:1;" d="M 1.757812 211.71875 L 94.375 304.5 L 186.996094 211.71875 L 186.996094 266.566406 L 94.375 359.347656 L 1.757812 266.566406 Z M 1.757812 211.71875 "/></g></g></svg>